<svg width="84" height="50" viewBox="0 0 108 64" fill="none" 
    xmlns="http://www.w3.org/2000/svg">
    <path d="M30.146 23.244c0 1.317.142 2.385.391 3.168.285.783.641 1.637 1.14 2.563.177.284.248.57.248.818 0 .356-.213.712-.676 1.068l-2.242 1.495c-.32.213-.64.32-.925.32-.356 0-.712-.178-1.068-.498a11.003 11.003 0 01-1.281-1.673 27.542 27.542 0 01-1.104-2.1c-2.776 3.275-6.264 4.912-10.464 4.912-2.99 0-5.374-.854-7.118-2.563-1.744-1.708-2.634-3.986-2.634-6.833 0-3.026 1.068-5.481 3.24-7.332 2.17-1.85 5.053-2.776 8.719-2.776 1.21 0 2.456.106 3.773.284 1.317.178 2.67.463 4.093.784v-2.599c0-2.705-.57-4.591-1.673-5.694-1.139-1.104-3.06-1.638-5.801-1.638-1.246 0-2.527.143-3.844.463a28.36 28.36 0 00-3.844 1.21c-.57.25-.997.392-1.246.463-.249.071-.427.107-.57.107-.498 0-.747-.356-.747-1.104V4.345c0-.569.071-.996.25-1.245.177-.25.498-.499.996-.748 1.246-.64 2.74-1.174 4.484-1.601 1.744-.463 3.595-.677 5.553-.677 4.235 0 7.332.961 9.325 2.883 1.957 1.922 2.954 4.84 2.954 8.756v11.531h.07zm-14.45 5.41c1.174 0 2.384-.213 3.666-.64 1.281-.427 2.42-1.21 3.38-2.278.57-.676.997-1.424 1.211-2.278.214-.854.356-1.886.356-3.096v-1.495a29.715 29.715 0 00-3.274-.605 26.811 26.811 0 00-3.346-.214c-2.385 0-4.129.463-5.303 1.424-1.175.96-1.744 2.313-1.744 4.093 0 1.673.427 2.918 1.317 3.772.854.89 2.1 1.317 3.737 1.317zm28.58 3.844c-.64 0-1.068-.106-1.353-.356-.285-.213-.534-.712-.747-1.388L33.812 3.242c-.214-.712-.32-1.174-.32-1.424 0-.569.284-.89.854-.89h3.488c.676 0 1.139.107 1.388.357.285.213.498.711.712 1.388l5.979 23.561 5.552-23.561c.178-.712.392-1.175.676-1.388.285-.214.783-.356 1.424-.356h2.847c.677 0 1.14.106 1.424.356.285.213.534.711.676 1.388l5.624 23.846 6.157-23.846c.214-.712.463-1.175.712-1.388.285-.214.747-.356 1.388-.356h3.31c.57 0 .89.284.89.89 0 .177-.036.355-.071.569a5.063 5.063 0 01-.25.89L67.695 30.79c-.214.712-.463 1.174-.747 1.388-.285.214-.748.356-1.353.356h-3.06c-.677 0-1.14-.107-1.424-.356-.285-.25-.534-.712-.677-1.424L54.918 7.798l-5.481 22.92c-.178.712-.392 1.175-.677 1.424-.285.25-.783.356-1.423.356h-3.061zm45.735.961c-1.851 0-3.702-.213-5.481-.64-1.78-.428-3.168-.89-4.093-1.424-.57-.32-.961-.676-1.104-.997a2.512 2.512 0 01-.213-.996v-1.815c0-.748.284-1.104.818-1.104.214 0 .427.036.641.107.214.071.534.214.89.356 1.21.534 2.527.961 3.915 1.246 1.424.284 2.811.427 4.235.427 2.243 0 3.986-.392 5.197-1.175 1.21-.783 1.85-1.922 1.85-3.38 0-.997-.32-1.816-.96-2.492-.641-.677-1.851-1.282-3.595-1.851l-5.161-1.602c-2.598-.818-4.52-2.028-5.695-3.63-1.174-1.566-1.78-3.31-1.78-5.16 0-1.496.321-2.812.962-3.951a9.151 9.151 0 012.562-2.919c1.068-.819 2.278-1.424 3.702-1.85C88.124.18 89.619.002 91.185.002c.783 0 1.602.036 2.385.143.818.106 1.566.249 2.313.391a27.67 27.67 0 012.029.57c.64.213 1.139.427 1.495.64.498.285.854.57 1.068.89.213.285.32.676.32 1.175v1.672c0 .748-.285 1.14-.819 1.14-.284 0-.747-.143-1.352-.428-2.029-.925-4.307-1.388-6.834-1.388-2.028 0-3.63.32-4.733.997-1.104.676-1.673 1.708-1.673 3.167 0 .997.356 1.851 1.068 2.527.711.677 2.028 1.353 3.915 1.958l5.054 1.601c2.562.82 4.413 1.958 5.516 3.417 1.104 1.46 1.637 3.132 1.637 4.983 0 1.53-.32 2.919-.925 4.129-.641 1.21-1.495 2.277-2.598 3.132-1.103.89-2.42 1.53-3.95 1.993-1.602.498-3.275.747-5.09.747z" fill="#252F3E"/>
    <path d="M96.737 50.757c-11.71 8.648-28.722 13.24-43.35 13.24-20.5 0-38.972-7.581-52.924-20.18-1.104-.997-.107-2.35 1.21-1.567 15.09 8.756 33.705 14.059 52.96 14.059 12.99 0 27.263-2.705 40.396-8.257 1.958-.89 3.63 1.281 1.708 2.705z" fill="#F90"/>
    <path d="M101.614 45.204c-1.495-1.922-9.895-.925-13.703-.462-1.139.142-1.317-.854-.285-1.602 6.691-4.698 17.689-3.346 18.97-1.78 1.282 1.602-.356 12.6-6.62 17.867-.96.819-1.886.392-1.459-.676 1.424-3.523 4.591-11.46 3.097-13.347z" fill="#F90"/>
</svg>