<svg width="75" height="64" viewBox="0 0 110 93" fill="none" 
    xmlns="http://www.w3.org/2000/svg">
    <path fill-rule="evenodd" clip-rule="evenodd" d="M16.594 75.253v-7.076c0-.93.577-1.677 1.534-1.677h.265c.956 0 1.53.748 1.53 1.677v14.897c0 3.633-1.783 6.524-4.89 8.365a9.139 9.139 0 01-4.703 1.291h-.66c-3.61 0-6.479-1.796-8.312-4.921a9.263 9.263 0 01-1.282-4.735v-.663c0-3.635 1.784-6.524 4.89-8.368A9.106 9.106 0 019.67 72.75h.66c2.443 0 4.516.954 6.264 2.502zM3.406 82.742c0 2.624 1.263 4.597 3.548 5.855a6.128 6.128 0 002.98.782c2.56 0 4.458-1.215 5.768-3.398.608-1.015.892-2.126.892-3.307 0-2.275-1.07-4.05-2.891-5.369a6.186 6.186 0 00-3.703-1.2c-2.79 0-4.798 1.418-6.002 3.938a6.189 6.189 0 00-.592 2.699zm28.068-9.99h.462c3.858 0 6.792 1.883 8.65 5.272a9.054 9.054 0 011.142 4.386v.664c0 3.633-1.78 6.528-4.892 8.366a9.162 9.162 0 01-4.702 1.29h-.66c-3.61 0-6.479-1.796-8.31-4.921a9.265 9.265 0 01-1.284-4.735v-.663c0-3.635 1.791-6.514 4.889-8.368a9.066 9.066 0 014.705-1.292zm-6.264 9.99c0 2.547 1.241 4.421 3.38 5.739 1.003.618 2.108.898 3.281.898 2.5 0 4.35-1.276 5.636-3.4.613-1.013.891-2.126.891-3.305 0-2.369-1.134-4.178-3.071-5.49a6.164 6.164 0 00-3.523-1.079c-2.79 0-4.797 1.418-6.001 3.938a6.177 6.177 0 00-.593 2.699zm30.36-6.37c-.503-.236-1.444-.315-1.987-.336-2.782-.105-4.795 1.471-5.975 3.941a6.161 6.161 0 00-.594 2.697c0 2.87 1.497 4.88 4.043 6.105.93.447 2.13.532 3.146.532.894 0 2.157-.55 2.95-.93l.138-.066h.616l.068.014c.757.159 1.328.642 1.328 1.462v.331c0 2.04-3.705 2.508-5.118 2.607-4.989.348-8.72-2.41-10.142-7.2a8.729 8.729 0 01-.359-2.523v-.663c0-3.635 1.792-6.513 4.889-8.365a9.068 9.068 0 014.705-1.293h.66a8.44 8.44 0 014.874 1.515l.12.084.077.126c.158.264.294.57.294.883v.332c0 .855-.636 1.316-1.403 1.464l-.064.011h-.197c-.496 0-1.626-.517-2.07-.727zm10.8 2.27a348.83 348.83 0 013.903-3.886c.366-.358 1.75-1.872 2.296-1.872h.596l.068.015c.76.158 1.329.642 1.329 1.464v.331c0 .56-.653 1.212-1.012 1.596-.765.816-1.57 1.605-2.353 2.404l-4.023 4.11a933.48 933.48 0 015.18 5.257c.477.486.95.975 1.419 1.468.165.176.41.394.548.636.15.228.24.484.24.758v.346l-.019.08c-.186.765-.669 1.381-1.51 1.381h-.265c-.551 0-1.173-.627-1.55-.985-.778-.738-1.53-1.514-2.291-2.268l-2.557-2.526v4.037c0 .93-.578 1.677-1.533 1.677h-.262c-.957 0-1.534-.747-1.534-1.677V68.242c0-.93.578-1.674 1.534-1.674h.262c.955 0 1.533.744 1.533 1.674v10.4zm41.497-5.758h.331c.999 0 1.665.678 1.665 1.677 0 1.387-1.318 1.742-2.458 1.742-1.495 0-2.923.912-3.954 1.934-1.285 1.275-1.847 2.909-1.847 4.704v8.113c0 .93-.577 1.676-1.534 1.676h-.263c-.957 0-1.534-.746-1.534-1.676v-8.579c0-3.294 1.594-5.983 4.25-7.869 1.586-1.127 3.403-1.721 5.344-1.721zM84.203 88.962c1.211.426 2.593.365 3.836.147.636-.272 2.262-.986 2.86-.881l.093.016.086.042c.365.178.714.43.9.805.436.876.227 1.758-.63 2.255l-.284.166c-3.158 1.835-6.518 1.58-9.666-.133-1.505-.82-2.657-2.035-3.506-3.517l-.199-.347c-2.027-3.534-1.754-7.251.533-10.612.79-1.162 1.821-2.06 3.027-2.761l.457-.265c2.974-1.728 6.162-1.61 9.216-.093 1.643.816 2.974 2.031 3.89 3.63l.166.288c.666 1.162-.197 2.174-1.088 2.866-1.034.802-2.077 1.769-3.068 2.63-2.21 1.919-4.416 3.843-6.623 5.764zm-2.86-2.021c2.47-2.132 4.942-4.267 7.407-6.408.842-.73 1.765-1.49 2.6-2.258-.67-.85-1.79-1.463-2.74-1.828-1.922-.737-3.815-.49-5.576.534-2.306 1.34-3.288 3.473-3.202 6.128.035 1.046.314 2.053.865 2.943.194.313.412.608.646.889zM63.374 19.787H73.2v10.109h4.967c2.295 0 4.654-.411 6.827-1.152 1.067-.365 2.266-.872 3.319-1.51-1.387-1.822-2.096-4.123-2.303-6.392-.284-3.085.335-7.101 2.41-9.516l1.032-1.202 1.23.996c3.1 2.505 5.705 6.006 6.165 9.998 3.731-1.105 8.111-.844 11.4 1.067l1.349.783-.71 1.395c-2.781 5.463-8.596 7.156-14.281 6.856C86.098 52.544 67.579 62.64 45.123 62.64c-11.601 0-22.244-4.365-28.306-14.724l-.099-.169-.883-1.809c-2.049-4.56-2.73-9.555-2.268-14.547l.139-1.495h8.402v-10.11h9.825V9.899h19.65V.008h11.791v19.779z" fill="#364548"/>
    <path fill-rule="evenodd" clip-rule="evenodd" d="M95.206 23.527c.659-5.154-3.173-9.201-5.55-11.123-2.738 3.186-3.163 11.538 1.133 15.054-2.398 2.143-7.45 4.086-12.622 4.086H15.198c-.503 5.435.445 10.44 2.61 14.723l.717 1.32c.453.774.949 1.522 1.484 2.241 2.59.168 4.976.225 7.16.177 4.292-.095 7.793-.606 10.447-1.531a.752.752 0 01.94.478.766.766 0 01-.444.96c-.354.124-.721.239-1.101.348h-.002c-2.09.601-4.33 1.005-7.22 1.185.171.003-.18.026-.18.026-.099.006-.223.02-.322.025a65.235 65.235 0 01-3.62.078 80.49 80.49 0 01-4.239-.103l-.038.025c5.246 5.936 13.45 9.495 23.733 9.495 21.763 0 40.222-9.71 48.397-31.508 5.799.598 11.372-.89 13.907-5.871-4.038-2.346-9.23-1.598-12.221-.085z" fill="#22A0C8"/>
    <path fill-rule="evenodd" clip-rule="evenodd" d="M95.206 23.527c.659-5.154-3.173-9.201-5.55-11.123-2.738 3.186-3.163 11.538 1.133 15.054-2.398 2.143-7.45 4.086-12.622 4.086h-59.24c-.257 8.323 2.812 14.641 8.241 18.46h.002c4.29-.094 7.792-.605 10.446-1.53a.752.752 0 01.94.478.766.766 0 01-.444.96c-.354.124-.721.239-1.101.348h-.002c-2.09.601-4.523 1.057-7.413 1.236l-.071-.067c7.406 3.824 18.145 3.81 30.458-.95C73.79 45.141 86.636 34.971 95.6 23.34c-.135.06-.266.123-.394.188z" fill="#37B1D9"/>
    <path fill-rule="evenodd" clip-rule="evenodd" d="M15.316 38.147c.391 2.912 1.238 5.637 2.492 8.12l.717 1.32c.453.774.949 1.522 1.484 2.241 2.59.168 4.976.225 7.16.177 4.292-.095 7.793-.606 10.447-1.531a.753.753 0 01.94.478.766.766 0 01-.444.96c-.354.124-.721.239-1.101.348h-.002c-2.09.601-4.51 1.031-7.4 1.21-.1.007-.273.008-.373.014a64.446 64.446 0 01-3.609.103c-1.372 0-2.777-.026-4.288-.104 5.247 5.936 13.5 9.508 23.784 9.508 18.632 0 34.841-7.117 44.249-22.844H15.316z" fill="#1B81A5"/>
    <path fill-rule="evenodd" clip-rule="evenodd" d="M19.494 38.147c1.113 5.112 3.79 9.125 7.676 11.858 4.29-.095 7.792-.606 10.446-1.531a.753.753 0 01.94.478.766.766 0 01-.444.96c-.354.124-.721.239-1.101.348h-.002c-2.09.601-4.56 1.031-7.452 1.21 7.406 3.824 18.114 3.769 30.426-.99 7.448-2.881 14.617-7.169 21.048-12.333H19.494z" fill="#1D91B4"/>
    <path fill-rule="evenodd" clip-rule="evenodd" d="M23.744 21.435h8.516v8.57h-8.515v-8.57zm.71.714h.672v7.143h-.672v-7.143zm1.263 0h.7v7.143h-.7v-7.143zm1.29 0h.7v7.143h-.7v-7.143zm1.29 0h.7v7.143h-.7v-7.143zm1.291 0h.699v7.143h-.699v-7.143zm1.29 0h.673v7.143h-.673v-7.143zm2.692-10.603h8.516v8.57h-8.517v-8.57zm.71.714h.671v7.142h-.671V12.26zm1.263 0h.699v7.142h-.699V12.26zm1.29 0h.699v7.142h-.7V12.26zm1.29 0h.699v7.142h-.699V12.26zm1.29 0h.7v7.142h-.7V12.26zm1.29 0h.673v7.142h-.673V12.26z" fill="#23A3C2"/>
    <path fill-rule="evenodd" clip-rule="evenodd" d="M33.57 21.435h8.516v8.57h-8.517v-8.57zm.71.714h.671v7.143h-.671v-7.143zm1.263 0h.699v7.143h-.699v-7.143zm1.29 0h.699v7.143h-.7v-7.143zm1.29 0h.699v7.143h-.699v-7.143zm1.29 0h.7v7.143h-.7v-7.143zm1.29 0h.673v7.143h-.673v-7.143z" fill="#34BBDE"/>
    <path fill-rule="evenodd" clip-rule="evenodd" d="M43.395 21.435h8.516v8.57h-8.516v-8.57zm.71.714h.672v7.143h-.672v-7.143zm1.263 0h.699v7.143h-.699v-7.143zm1.29 0h.7v7.143h-.7v-7.143zm1.29 0h.7v7.143h-.7v-7.143zm1.29 0h.7v7.143h-.7v-7.143zm1.291 0h.672v7.143h-.672v-7.143z" fill="#23A3C2"/>
    <path fill-rule="evenodd" clip-rule="evenodd" d="M43.395 11.546h8.516v8.57h-8.516v-8.57zm.71.714h.672v7.142h-.672V12.26zm1.263 0h.699v7.142h-.699V12.26zm1.29 0h.7v7.142h-.7V12.26zm1.29 0h.7v7.142h-.7V12.26zm1.29 0h.7v7.142h-.7V12.26zm1.291 0h.672v7.142h-.672V12.26zm2.692 9.175h8.515v8.57h-8.515v-8.57zm.71.714h.671v7.143h-.671v-7.143zm1.263 0h.698v7.143h-.698v-7.143zm1.29 0h.698v7.143h-.698v-7.143zm1.29 0h.7v7.143h-.7v-7.143zm1.29 0h.7v7.143h-.7v-7.143zm1.29 0h.673v7.143h-.672v-7.143z" fill="#34BBDE"/>
    <path fill-rule="evenodd" clip-rule="evenodd" d="M53.22 11.546h8.516v8.57h-8.515v-8.57zm.71.714h.672v7.142h-.671V12.26zm1.264 0h.698v7.142h-.698V12.26zm1.29 0h.698v7.142h-.698V12.26zm1.29 0h.7v7.142h-.7V12.26zm1.29 0h.7v7.142h-.7V12.26zm1.29 0h.673v7.142h-.672V12.26z" fill="#23A3C2"/>
    <path fill-rule="evenodd" clip-rule="evenodd" d="M53.22 1.656h8.516v8.572h-8.515V1.656zm.71.714h.672v7.143h-.671V2.37zm1.264 0h.698v7.143h-.698V2.37zm1.29 0h.698v7.143h-.698V2.37zm1.29 0h.7v7.143h-.7V2.37zm1.29 0h.7v7.143h-.7V2.37zm1.29 0h.673v7.143h-.672V2.37z" fill="#34BBDE"/>
    <path fill-rule="evenodd" clip-rule="evenodd" d="M63.046 21.435h8.515v8.57h-8.515v-8.57zm.709.714h.672v7.143h-.672v-7.143zm1.263 0h.7v7.143h-.7v-7.143zm1.29 0h.7v7.143h-.7v-7.143zm1.29 0h.7v7.143h-.7v-7.143zm1.292 0h.698v7.143h-.698v-7.143zm1.29 0h.672v7.143h-.672v-7.143z" fill="#23A3C2"/>
    <path fill-rule="evenodd" clip-rule="evenodd" d="M41.553 43.902a2.335 2.335 0 011.681.681 2.367 2.367 0 01.7 1.684 2.377 2.377 0 01-.7 1.683 2.348 2.348 0 01-1.682.68 2.343 2.343 0 01-1.641-.703 2.373 2.373 0 010-3.322 2.342 2.342 0 011.642-.703z" fill="#D3ECEC"/>
    <path fill-rule="evenodd" clip-rule="evenodd" d="M41.553 44.572c.214 0 .42.041.608.115a.69.69 0 00-.318.777.692.692 0 00.661.512c.26 0 .486-.145.603-.36a1.703 1.703 0 01-.486 1.958 1.676 1.676 0 01-2.652-.737 1.704 1.704 0 01.581-1.93c.29-.217.642-.334 1.003-.334zM0 39.002h109.281c-2.379-.607-7.528-1.428-6.679-4.567-4.327 5.039-14.761 3.535-17.395 1.05-2.932 4.281-20.003 2.654-21.194-.68-3.676 4.342-15.068 4.342-18.744 0-1.192 3.334-18.263 4.961-21.195.68-2.634 2.485-13.067 3.989-17.394-1.05.849 3.139-4.3 3.96-6.68 4.567" fill="#364548"/>
    <path fill-rule="evenodd" clip-rule="evenodd" d="M47.797 60.94c-5.818-2.778-9.01-6.556-10.788-10.68-2.16.622-4.758 1.019-7.777 1.189a63.92 63.92 0 01-3.588.097c-1.447 0-2.972-.044-4.573-.129 5.335 5.367 11.899 9.5 24.052 9.575.897 0 1.788-.018 2.674-.051z" fill="#BDD9D7"/>
    <path fill-rule="evenodd" clip-rule="evenodd" d="M39.17 54.066c-.805-1.1-1.585-2.482-2.16-3.806-2.16.622-4.759 1.019-7.778 1.19 2.074 1.132 5.039 2.182 9.939 2.616" fill="#D3ECEC"/>
</svg>