<svg width="180" height="51" viewBox="0 0 224 64" fill="none" 
    xmlns="http://www.w3.org/2000/svg">
    <path fill-rule="evenodd" clip-rule="evenodd" d="M208.562 26.505c-.201.04-.403.486-.403.728-.041 1.618-.081 5.905-.081 8.817 0 .081.121.243.242.243.605.04 2.059.08 3.311.08 1.736 0 2.745-.242 3.311-.484 1.452-.728 2.139-2.306 2.139-4.045 0-3.923-2.745-5.42-6.823-5.42-.283-.04-1.09-.04-1.696.081zm10.417 18.08c0-4.005-2.948-6.23-8.277-6.23-.242 0-1.938-.04-2.342.041-.121.04-.282.122-.282.243 0 2.871-.041 7.442.081 9.222.08.768.646 1.86 1.332 2.184.726.404 2.382.485 3.512.485 3.19 0 5.976-1.78 5.976-5.945zM200.326 24.28c.404 0 1.615.12 4.724.12 2.947 0 5.289-.08 8.155-.08 3.512 0 8.357 1.254 8.357 6.512 0 2.589-1.817 4.651-4.198 5.663-.121.04-.121.12 0 .16 3.391.85 6.379 2.954 6.379 6.917 0 3.883-2.423 6.35-5.935 7.888-2.14.93-4.805 1.253-7.51 1.253-2.059 0-7.59-.242-10.658-.161-.323-.122.283-1.578.565-1.82.727-.041 1.292-.081 2.059-.324 1.09-.283 1.211-.607 1.373-2.265.08-1.416.08-6.431.08-9.99 0-4.894.041-8.21 0-9.829-.04-1.253-.484-1.658-1.372-1.9a72.586 72.586 0 00-2.746-.405c-.202-.202.485-1.578.727-1.739zM177.03 49.438c.97.768 2.867 1.092 4.563 1.092 2.18 0 4.36-.404 6.46-2.306 2.14-1.94 3.633-4.934 3.633-9.706 0-4.571-1.736-8.292-5.289-10.476-2.018-1.254-4.602-1.78-7.59-1.78-.888 0-1.736.041-2.26.284-.122.08-.404.445-.404.646-.081.81-.081 7.038-.081 10.678 0 3.762 0 9.02.081 9.627 0 .607.282 1.537.888 1.941h-.001zm-9.164-25.158c.767 0 3.714.122 5.127.122 2.544 0 4.361-.121 9.165-.121 4.037 0 7.429 1.092 9.851 3.154 2.947 2.549 4.482 6.068 4.482 10.354 0 6.108-2.786 9.627-5.572 11.65-2.785 2.062-6.419 3.275-11.587 3.275-2.745 0-7.469-.08-11.385-.121h-.041c-.201-.364.323-1.78.646-1.82 1.05-.122 1.333-.162 1.858-.364.847-.324 1.009-.769 1.13-2.265.121-2.791.081-6.148.081-9.95 0-2.71.04-8.008-.041-9.707-.121-1.415-.726-1.78-1.938-2.022-.605-.122-1.413-.284-2.543-.405-.162-.283.565-1.537.767-1.779z" fill="#8E714E"/>
    <path fill-rule="evenodd" clip-rule="evenodd" d="M119.014 51.015c-1.009-.121-1.736-.282-2.624-.687-.121-.081-.323-.485-.323-.647-.08-1.416-.08-5.46-.08-8.17 0-2.185-.364-4.085-1.292-5.42-1.091-1.538-2.665-2.427-4.684-2.427-1.776 0-4.158 1.213-6.137 2.912-.04.04-.363.324-.323-.121 0-.445.081-1.335.122-1.942.04-.566-.283-.849-.283-.849-1.292.647-4.925 1.496-6.258 1.617-.969.203-1.211 1.133-.201 1.457h.04c1.09.323 1.816.688 2.381 1.052.404.323.364.768.364 1.132.04 3.033.04 7.685-.08 10.233-.04 1.011-.323 1.375-1.05 1.537l.08-.04c-.565.12-1.009.242-1.695.323-.243.243-.243 1.537 0 1.82.444 0 2.785-.121 4.724-.121 2.664 0 4.037.121 4.723.121.283-.323.364-1.537.202-1.82-.767-.04-1.333-.121-1.857-.283-.727-.163-.929-.526-.97-1.375-.08-2.144-.08-6.674-.08-9.748 0-.85.242-1.254.484-1.497.929-.808 2.423-1.374 3.755-1.374 1.292 0 2.14.404 2.786.93.888.728 1.171 1.78 1.292 2.548.201 1.739.121 5.177.121 8.17 0 1.618-.121 2.022-.726 2.224-.283.122-1.01.284-1.858.364-.283.284-.202 1.538 0 1.82 1.171 0 2.544-.12 4.562-.12 2.503 0 4.119.12 4.765.12.201-.242.282-1.415.12-1.739zm11.184-15.45c-2.14 0-3.472 1.659-3.472 4.247 0 2.629 1.171 5.662 4.481 5.662.565 0 1.615-.242 2.099-.809.768-.727 1.293-2.184 1.293-3.72 0-3.358-1.656-5.38-4.401-5.38zm-.283 17.877c-.807 0-1.373.243-1.736.445-1.696 1.092-2.462 2.144-2.462 3.398 0 1.172.444 2.102 1.413 2.911 1.17 1.012 2.785 1.497 4.844 1.497 4.118 0 5.935-2.225 5.935-4.408 0-1.538-.767-2.549-2.341-3.115-1.131-.485-3.19-.728-5.653-.728zm.283 10.516c-2.463 0-4.24-.526-5.773-1.698-1.494-1.133-2.14-2.832-2.14-4.005 0-.323.081-1.213.807-2.022.444-.486 1.414-1.416 3.715-2.993.08-.04.121-.08.121-.162 0-.08-.081-.162-.162-.202-1.897-.728-2.463-1.901-2.624-2.548v-.081c-.04-.243-.121-.485.242-.728.283-.202.687-.445 1.13-.728.687-.405 1.414-.85 1.858-1.214.081-.08.081-.161.081-.242 0-.081-.081-.162-.162-.202-2.826-.93-4.239-3.034-4.239-6.189 0-2.062.929-3.923 2.584-5.096 1.13-.89 3.956-1.982 5.814-1.982h.121c1.897.04 2.947.445 4.44.971.808.283 1.575.404 2.625.404 1.574 0 2.261-.485 2.826-1.05.04.08.121.282.162.808a3.066 3.066 0 01-.525 1.86c-.323.445-1.05.77-1.777.77h-.202c-.726-.082-1.05-.163-1.05-.163l-.161.081c-.04.081 0 .162.04.283l.041.081c.081.364.242 1.456.242 1.74 0 3.316-1.332 4.771-2.745 5.864-1.373 1.01-2.947 1.658-4.724 1.82-.04 0-.201 0-.565.04-.202 0-.484.04-.525.04h-.04c-.323.082-1.13.486-1.13 1.173 0 .607.363 1.335 2.099 1.457.363.04.726.04 1.13.08 2.301.162 5.168.365 6.5.81 1.857.687 3.028 2.345 3.028 4.327 0 2.994-2.139 5.784-5.692 7.523-1.736.769-3.473 1.173-5.37 1.173zm23.012-28.19c-.847 0-1.614.201-2.18.606-1.574.97-2.381 2.912-2.381 5.743 0 5.299 2.664 9.02 6.459 9.02 1.131 0 2.019-.324 2.786-.97 1.171-.972 1.776-2.913 1.776-5.623 0-5.258-2.624-8.777-6.459-8.777h-.001zm.727 17.31c-6.863 0-9.326-5.056-9.326-9.788 0-3.316 1.332-5.864 3.997-7.685 1.898-1.172 4.159-1.82 6.177-1.82 5.249 0 8.923 3.762 8.923 9.182 0 3.68-1.454 6.592-4.24 8.372-1.332.89-3.633 1.74-5.531 1.74zm-71.945-17.31c-.848 0-1.615.201-2.18.606-1.574.97-2.382 2.912-2.382 5.743 0 5.299 2.664 9.02 6.46 9.02 1.13 0 2.018-.324 2.786-.97 1.17-.972 1.776-2.913 1.776-5.623 0-5.258-2.584-8.777-6.46-8.777zm.727 17.31c-6.863 0-9.326-5.056-9.326-9.788 0-3.316 1.332-5.864 3.996-7.685 1.898-1.172 4.16-1.82 6.178-1.82 5.249 0 8.922 3.762 8.922 9.182 0 3.68-1.453 6.592-4.24 8.372-1.291.89-3.592 1.74-5.53 1.74zm-46.147-.404c-.08-.121-.162-.486-.12-.93 0-.324.08-.526.12-.607.848-.122 1.292-.243 1.777-.364.807-.203 1.13-.647 1.17-1.658.122-2.427.122-7.038.081-10.233V38.8c0-.364 0-.81-.444-1.133a9.114 9.114 0 00-2.422-1.052c-.363-.12-.606-.323-.565-.565 0-.243.242-.526.767-.607 1.332-.122 4.804-.97 6.177-1.578.08.08.202.324.202.648l-.04.444c-.041.445-.081.971-.081 1.497 0 .162.161.283.322.283.081 0 .162-.04.243-.081 2.584-2.022 4.925-2.75 6.136-2.75 1.979 0 3.513.93 4.684 2.871.08.122.161.162.283.162.08 0 .2-.04.242-.121 2.382-1.82 4.764-2.912 6.338-2.912 3.755 0 5.976 2.79 5.976 7.523 0 1.334 0 3.074-.04 4.651 0 1.416-.041 2.71-.041 3.64 0 .202.282.85.726.97.566.284 1.333.405 2.342.567h.04c.081.283-.08 1.335-.241 1.537-.243 0-.606 0-1.01-.04a59.477 59.477 0 00-3.069-.081c-2.502 0-3.794.04-5.047.121-.08-.323-.12-1.294 0-1.537.728-.121 1.09-.243 1.535-.364.808-.243 1.01-.607 1.05-1.658 0-.769.161-7.321-.081-8.898-.242-1.618-1.453-3.519-4.118-3.519-1.01 0-2.584.404-4.118 1.577a.722.722 0 00-.162.404v.041c.162.85.162 1.82.162 3.317v2.629c0 1.82-.04 3.519 0 4.813 0 .89.525 1.092.969 1.254.242.04.403.08.605.12.364.082.727.163 1.292.284.081.162.081.688-.04 1.133-.04.242-.121.363-.162.404-1.372-.04-2.785-.081-4.844-.081-.606 0-1.656.04-2.544.04-.727 0-1.413.041-1.816.041-.04-.081-.122-.364-.122-.809 0-.364.081-.647.162-.728.202-.04.363-.08.565-.08.484-.082.888-.163 1.292-.243.687-.203.929-.567.969-1.457.121-2.022.242-7.805-.04-9.262-.485-2.346-1.817-3.518-3.957-3.518-1.251 0-2.826.606-4.118 1.577-.202.162-.364.566-.364.93v2.387c0 2.912 0 6.552.04 8.13.042.484.203 1.05 1.131 1.253.202.04.525.121.93.162l.725.121c.082.243.041 1.214-.12 1.537-.404 0-.889-.04-1.454-.04a65.611 65.611 0 00-3.149-.081c-1.413 0-2.422.04-3.23.08-.565-.08-1.01-.08-1.494-.08z" fill="#442D22"/>
    <path fill-rule="evenodd" clip-rule="evenodd" d="M15.336 62.38l-1.655-.566s.202-8.453-2.827-9.06c-2.018-2.346.324-99.497 7.591-.323 0 0-2.503 1.253-2.947 3.397-.485 2.104-.162 6.553-.162 6.553z" fill="#fff"/>
    <path fill-rule="evenodd" clip-rule="evenodd" d="M15.336 62.38l-1.655-.566s.202-8.453-2.827-9.06c-2.018-2.346.324-99.497 7.591-.323 0 0-2.503 1.253-2.947 3.397-.485 2.104-.162 6.553-.162 6.553z" fill="#A6A385"/>
    <path fill-rule="evenodd" clip-rule="evenodd" d="M16.224 54.21s14.495-9.545 11.103-29.404c-3.27-14.439-10.982-19.17-11.83-20.991C14.57 2.521 13.682.256 13.682.256l.606 40.162c0 .041-1.252 12.296 1.938 13.793" fill="#fff"/>
    <path fill-rule="evenodd" clip-rule="evenodd" d="M16.224 54.21s14.495-9.545 11.103-29.404c-3.27-14.439-10.982-19.17-11.83-20.991C14.57 2.521 13.682.256 13.682.256l.606 40.162c0 .041-1.252 12.296 1.938 13.793" fill="#499D4A"/>
    <path fill-rule="evenodd" clip-rule="evenodd" d="M12.833 54.736S-.773 45.434.035 29.053C.802 12.673 10.41 4.624 12.267 3.168 13.48 1.874 13.52 1.388 13.6.094c.848 1.82.687 27.22.807 30.213.364 11.527-.645 22.246-1.574 24.43z" fill="#fff"/>
    <path fill-rule="evenodd" clip-rule="evenodd" d="M12.833 54.736S-.773 45.434.035 29.053C.802 12.673 10.41 4.624 12.267 3.168 13.48 1.874 13.52 1.388 13.6.094c.848 1.82.687 27.22.807 30.213.364 11.527-.645 22.246-1.574 24.43z" fill="#58AA50"/>
</svg>