<svg width="180" height="33" viewBox="0 0 342 64" fill="none" 
    xmlns="http://www.w3.org/2000/svg">
    <path d="M91.827 32.206H79.45V19.758H92.5c4.776 0 7.164 2.107 7.164 6.32 0 4.086-2.613 6.13-7.837 6.13v-.002zm8.896-12.593c-1.707-1.52-4.07-2.279-7.119-2.279l-17.726.099v29.78h3.572l-.032-12.678h13.19c3.307 0 5.911-.759 7.811-2.278 1.9-1.519 2.85-3.627 2.85-6.322 0-2.696-.848-4.802-2.544-6.322h-.002zM123.84 40.96a6.108 6.108 0 01-1.695 2.533c-1.6 1.562-4.04 2.342-7.324 2.342-2.965 0-5.239-.747-6.826-2.277-1.588-1.53-2.382-3.548-2.382-6.093 0-1.325.208-2.502.623-3.528a6.898 6.898 0 011.807-2.598c1.642-1.497 3.902-2.246 6.779-2.246 6.375 0 9.563 2.79 9.563 8.372 0 1.325-.181 2.49-.533 3.495h-.012zm.659-10.987c-2.176-1.984-5.397-2.986-9.666-2.986-4.032 0-7.149 1.013-9.346 3.04-1.984 1.834-2.987 4.309-2.987 7.426 0 3.093 1.024 5.59 3.072 7.488a10.27 10.27 0 003.953 2.225c1.505.459 3.271.688 5.297.688 4.246 0 7.467-.981 9.699-2.944 1.984-1.792 2.986-4.267 2.986-7.458 0-3.2-1.002-5.696-3.008-7.49v.011zm27.006 11.848c0 4.008-3.591 6.013-10.773 6.013-2.195 0-4.045-.14-5.547-.419-1.502-.279-2.723-.74-3.661-1.384a5.366 5.366 0 01-1.727-1.92c-.426-.79-.704-1.781-.832-2.987l3.342-.032c0 1.579.585 2.74 1.755 3.486 1.255.896 3.477 1.344 6.67 1.344 5.019 0 7.53-1.259 7.53-3.774 0-1.472-.853-2.483-2.525-3.04-.342-.106-2.372-.39-6.08-.847-3.709-.457-6.038-.869-6.953-1.232-1.982-.789-2.973-2.208-2.973-4.254 0-2.005.886-3.498 2.667-4.477.875-.406 1.968-.72 3.281-.944 1.313-.226 2.833-.336 4.561-.336 6.914 0 10.371 2.17 10.371 6.506h-3.178c0-3.05-2.432-4.586-7.291-4.586-2.473 0-4.317.32-5.532.928-1.215.608-1.822 1.568-1.822 2.848 0 1.194.822 2.058 2.462 2.592.96.277 3.166.597 6.62.96 3.091.277 5.213.672 6.364 1.173 2.197.853 3.293 2.304 3.293 4.349l-.022.033zm13.126 5.432l-1.36.192-.848.064c-2.176 0-3.733-.314-4.707-.946-.974-.631-1.443-1.735-1.443-3.306V29.65h-3.953v-1.999h3.933l.032-6.421h3.046v6.421h5.306v2.031l-5.306-.032v13.224c0 .984.262 1.664.784 2.026.523.363 1.455.561 2.799.561.192.022.405.015.64-.021.356-.063.708-.144 1.056-.241l.032 2.027-.011.026zm21.072-4.512a9.066 9.066 0 01-2.844 1.568c-1.066.365-2.292.534-3.676.534-6.372 0-9.557-2.632-9.557-7.894 0-2.45.815-4.368 2.445-5.753 1.631-1.386 3.926-2.078 6.889-2.078 2.983 0 5.248.699 6.793 2.094 1.544 1.395 2.317 3.266 2.317 5.61 0 2.557-.789 4.528-2.365 5.913l-.002.006zm5.415-15.083h-3.047l-.032 3.36c-1.344-1.366-2.304-2.227-2.88-2.59-1.706-.938-3.912-1.405-6.62-1.405-3.966 0-6.996.907-9.084 2.718-1.984 1.664-2.974 4.071-2.974 7.225 0 1.558.251 2.947.752 4.16a8.398 8.398 0 002.194 3.117c2.093 1.747 5.051 2.622 8.875 2.622 4.591 0 7.847-1.255 9.771-3.767v3.477c0 2.219-.699 3.934-2.095 5.15-1.397 1.216-3.694 1.813-6.893 1.813-3.008 0-5.15-.427-6.429-1.241-.96-.637-1.621-1.741-1.984-3.313h-3.136c.341 2.195 1.28 3.782 2.773 4.761 1.75 1.129 4.694 1.693 8.854 1.693 7.957 0 11.946-2.958 11.946-8.875V27.666l.009-.008zm16.48 1.976a15.892 15.892 0 00-2.556-.213c-5.008 0-7.511 2.746-7.511 8.238v9.55h-3.015l-.032-19.543 3.048.03v3.488h.16c.512-1.374 1.322-2.416 2.43-3.125 1.213-.687 3.025-1.03 5.433-1.03h2.045v2.623l-.002-.018zm2.834 6.569c.384-2.221 1.248-3.94 2.589-5.159a9.08 9.08 0 012.974-1.586c1.107-.352 2.346-.529 3.742-.529 2.707 0 4.906.742 6.634 2.227 1.728 1.485 2.573 3.168 2.573 5.046h-18.512zm18.809-6.03c-1.067-1.07-2.39-1.86-3.968-2.375-1.579-.514-3.414-.77-5.547-.77-3.947 0-7.008.918-9.186 2.752-2.178 1.835-3.264 4.33-3.264 7.49s1.045 5.654 3.136 7.52c2.261 2.048 5.44 3.072 9.566 3.072 1.642 0 3.16-.186 4.557-.558 1.398-.37 2.619-.898 3.663-1.578 1.835-1.318 2.996-2.944 3.488-4.875h-3.293c-1.131 3.342-3.944 5.014-8.442 5.014-3.177 0-5.618-.818-7.323-2.452-1.472-1.4-2.206-3.215-2.206-5.444h21.721c0-3.315-.96-5.915-2.912-7.787l.01-.01z" fill="#231F20"/>
    <path d="M264.341 39.228c0 5.802-4.679 8.704-14.039 8.704-5.608 0-9.701-1-12.281-2.987-2.112-1.643-3.166-4.147-3.166-7.518h3.768c0 5.417 3.893 8.125 11.678 8.125 3.733 0 6.432-.555 8.106-1.662 1.408-.98 2.112-2.514 2.112-4.602 0-2.067-.96-3.515-2.88-4.347-1.088-.448-3.733-1.014-7.968-1.694-5.312-.81-8.755-1.62-10.333-2.429-2.283-1.195-3.414-3.218-3.414-6.074 0-2.663.96-4.645 2.912-5.945 2.091-1.427 5.675-2.142 10.75-2.142 9.173 0 13.76 3.046 13.76 9.14h-3.8c0-4.566-3.406-6.847-10.217-6.847-3.416 0-5.915.46-7.494 1.387-1.496.981-2.24 2.421-2.24 4.32 0 1.984.96 3.381 2.88 4.192 1.024.47 4.032 1.12 9.024 1.952 4.693.704 7.861 1.525 9.493 2.453 2.24 1.152 3.36 3.147 3.36 5.974h-.011zm30.614 2.96a14.72 14.72 0 01-4.772 2.54c-1.771.565-3.757.845-5.956.845-4.484 0-8.106-1.208-10.873-3.624-2.767-2.416-4.147-5.636-4.147-9.661 0-4.194 1.371-7.462 4.115-9.805 2.743-2.342 6.378-3.512 10.904-3.512 4.59 0 8.199 1.224 10.825 3.672 1.386 1.195 2.41 2.588 3.074 4.185.663 1.596.992 3.417.992 5.461 0 4.173-1.389 7.473-4.164 9.899h.002zm2.001 1.975c1.962-1.384 3.415-3.061 4.355-5.032.94-1.971 1.41-4.246 1.41-6.825 0-4.624-1.536-8.32-4.608-11.123-1.643-1.534-3.627-2.674-5.952-3.42-2.325-.745-4.981-1.12-7.968-1.12-5.803 0-10.347 1.408-13.653 4.219-3.307 2.81-4.96 6.626-4.96 11.442 0 4.687 1.668 8.47 5.006 11.345 3.337 2.876 7.896 4.315 13.674 4.315 2.262 0 4.233-.153 5.917-.459 1.684-.306 3.115-.775 4.288-1.408l5.566 3.858 2.325-2.135-5.39-3.656h-.01zm33.973 3.048h-25.756V17.387l3.54-.064v27.389h22.237l-.032 2.49.011.009z" fill="#367FAF"/>
    <path d="M51.453 42.205c.358-2.528.25-2.9 2.472-2.49l.566.043c1.709.066 3.943-.233 5.256-.75 2.827-1.111 4.502-2.967 1.715-2.48-6.357 1.111-6.794-.715-6.794-.715 6.712-8.442 9.519-19.16 7.097-21.784-6.618-7.154-18.042-3.77-18.245-3.682l-.06.01a26.595 26.595 0 00-4.242-.373c-2.877-.04-5.06.64-6.716 1.704 0 0-20.4-7.126-19.451 8.96.202 3.421 5.786 25.89 12.446 19.104 2.434-2.483 4.787-4.58 4.787-4.58a7.04 7.04 0 004.033.872l.113-.082c-.035.309-.022.608.046.966-1.715 1.625-1.212 1.91-4.642 2.509-3.47.606-1.432 1.685-.1 1.968 1.613.341 5.346.826 7.87-2.166l-.101.342c.672.456.627 3.28.723 5.298.096 2.018.256 3.9.74 5.011.485 1.11 1.059 3.968 5.566 3.151 3.768-.685 6.649-1.67 6.912-10.832" fill="#231F20"/>
    <path d="M51.453 42.205c.358-2.528.25-2.9 2.472-2.49l.566.043c1.709.066 3.943-.233 5.256-.75 2.827-1.111 4.502-2.967 1.715-2.48-6.357 1.111-6.794-.715-6.794-.715 6.712-8.442 9.519-19.16 7.097-21.784-6.618-7.154-18.042-3.77-18.245-3.682l-.06.01a26.595 26.595 0 00-4.242-.373c-2.877-.04-5.06.64-6.716 1.704 0 0-20.4-7.126-19.451 8.96.202 3.421 5.786 25.89 12.446 19.104 2.434-2.483 4.787-4.58 4.787-4.58a7.04 7.04 0 004.033.872l.113-.082c-.035.309-.022.608.046.966-1.715 1.625-1.212 1.91-4.642 2.509-3.47.606-1.432 1.685-.1 1.968 1.613.341 5.346.826 7.87-2.166l-.101.342c.672.456.627 3.28.723 5.298.096 2.018.256 3.9.74 5.011.485 1.11 1.059 3.968 5.566 3.151 3.768-.685 6.649-1.67 6.912-10.832" stroke="#231F20" stroke-width="4.108"/>
    <path d="M61.461 36.527c-6.357 1.111-6.794-.715-6.794-.715 6.712-8.443 9.519-19.161 7.097-21.784-6.607-7.154-18.041-3.77-18.244-3.681l-.062.01a26.594 26.594 0 00-4.242-.373c-2.877-.04-5.06.64-6.715 1.704 0 0-20.402-7.126-19.452 8.96.202 3.421 5.785 25.892 12.445 19.104 2.434-2.483 4.787-4.58 4.787-4.58a7.04 7.04 0 004.033.872l.114-.082c-.035.309-.02.608.046.966-1.716 1.625-1.212 1.91-4.64 2.509-3.471.606-1.432 1.685-.1 1.968 1.613.341 5.346.826 7.87-2.166l-.101.342c.672.456 1.145 2.968 1.067 5.248-.078 2.28-.133 3.84.398 5.062.53 1.223 1.058 3.968 5.567 3.151 3.768-.685 5.721-2.457 5.992-5.416.192-2.104.63-1.792.656-3.673l.35-.89c.403-2.85.064-3.77 2.385-3.342l.565.042c1.709.066 3.945-.232 5.257-.75 2.826-1.111 4.501-2.967 1.715-2.48l.006-.006z" fill="#417BA2"/>
    <path d="M43.52 10.275c-.707.188 11.357-3.737 18.212 3.688 2.422 2.624-.384 13.342-7.097 21.785m-16.75 2.414c-.174 5.305.044 10.648.657 11.947.613 1.299 1.924 3.824 6.434 3.005 3.767-.685 5.138-2.01 5.732-4.935.427-2.151 1.284-8.128 1.391-9.351l-14.213-.666zM32.48 11.566s-20.427-7.072-19.467 9.02C13.227 24.01 18.8 46.48 25.461 39.68c2.434-2.482 4.635-4.429 4.635-4.429l2.384-23.685z" stroke="#000" stroke-width="1.369"/>
    <path d="M54.624 35.747s.427 1.824 6.795.713c2.786-.488 1.109 1.368-1.718 2.48-2.319.913-7.517 1.146-7.602-.113-.218-3.254 2.736-2.265 2.523-3.08-.192-.734-1.515-1.454-2.39-3.25-.762-1.568-10.463-13.591 2.69-11.806.483-.085-3.43-10.607-15.743-10.777-12.313-.171-11.904 12.832-11.904 12.832" stroke="#000" stroke-width="1.369" stroke-linejoin="bevel"/>
    <path d="M34.44 36.86c-1.717 1.624-1.211 1.909-4.642 2.508-3.47.608-1.431 1.686-.1 1.968 1.614.342 5.347.827 7.87-2.167.768-.912-.004-2.368-1.06-2.737-.51-.18-1.19-.403-2.069.427h.002z" stroke="#000" stroke-width="1.369"/>
    <path d="M34.328 36.832c-.172-.956.37-2.09.953-3.422.875-1.995 2.893-3.991 1.28-10.322-1.203-4.718-9.277-.981-9.28-.341-.003.64.365 3.242-.135 6.272-.653 3.955 2.968 7.299 7.138 6.958" stroke="#000" stroke-width="1.369"/>
    <path d="M32.407 22.648c-.036.22.473.8 1.135.88.663.078 1.227-.378 1.264-.596.038-.217-.471-.458-1.134-.537-.664-.08-1.23.036-1.264.253z" fill="#fff" stroke="#000" stroke-width=".456"/>
    <path d="M52.558 22.204c.036.218-.472.8-1.135.879-.663.079-1.229-.378-1.265-.598-.036-.22.472-.458 1.135-.537.662-.08 1.227.035 1.264.254v.002z" fill="#fff" stroke="#000" stroke-width=".228"/>
    <path d="M54.926 20.691c.109 1.714-.435 2.88-.505 4.706-.101 2.652 1.492 5.686-.908 8.726" stroke="#000" stroke-width="1.369"/>
</svg>