<svg width="159" height="80" fill="none" 
    xmlns="http://www.w3.org/2000/svg">
    <path d="M34.472 44.592c2.541 0 4.602-2.075 4.602-4.634 0-2.56-2.06-4.634-4.602-4.634-2.54 0-4.6 2.074-4.6 4.634 0 2.559 2.06 4.634 4.6 4.634z" fill="#00D8FF"/>
    <path clip-rule="evenodd" d="M34.473 30.535c6.177 0 11.916.893 16.243 2.394 5.213 1.807 8.419 4.547 8.419 7.029 0 2.585-3.398 5.496-8.996 7.364-4.233 1.413-9.802 2.15-15.666 2.15-6.013 0-11.706-.692-15.986-2.165-5.415-1.864-8.677-4.813-8.677-7.35 0-2.46 3.06-5.18 8.2-6.984 4.344-1.525 10.224-2.438 16.462-2.438h0z" stroke="#00D8FF" stroke-width="3"/>
    <path clip-rule="evenodd" d="M26.329 35.274c3.086-5.39 6.72-9.951 10.173-12.977 4.159-3.646 8.117-5.073 10.251-3.834 2.224 1.292 3.03 5.71 1.84 11.528-.898 4.399-3.048 9.626-5.977 14.743-3.004 5.245-6.443 9.867-9.848 12.865-4.309 3.793-8.474 5.166-10.656 3.9-2.116-1.23-2.926-5.259-1.91-10.645.857-4.552 3.01-10.138 6.126-15.58h.001z" stroke="#00D8FF" stroke-width="3"/>
    <path clip-rule="evenodd" d="M26.337 44.748c-3.095-5.384-5.202-10.835-6.082-15.358-1.059-5.45-.31-9.617 1.822-10.86 2.222-1.295 6.425.207 10.835 4.151 3.334 2.982 6.758 7.467 9.696 12.579 3.013 5.24 5.27 10.55 6.148 15.018 1.112 5.655.212 9.975-1.967 11.246-2.115 1.233-5.985-.073-10.11-3.649-3.487-3.022-7.217-7.69-10.342-13.128v0z" stroke="#00D8FF" stroke-width="3"/>
    <path fill-rule="evenodd" clip-rule="evenodd" d="M85.545 51.797l-5.64-8.581c2.85-.253 5.418-2.333 5.418-6.133 0-3.867-2.724-6.342-6.546-6.342h-8.393v21.04h2.6v-8.36h4.166l5.325 8.36 3.07.016zm-7.079-10.662h-5.48V33.09h5.48c2.476 0 4.166 1.64 4.166 4.006 0 2.367-1.692 4.04-4.166 4.04v-.002zm16.757 11.04c2.475 0 4.51-.82 6.014-2.334l-1.128-1.546c-1.191 1.23-2.944 1.924-4.666 1.924-3.257 0-5.262-2.398-5.45-5.267h12.245v-.6c0-4.573-2.694-8.17-7.268-8.17-4.322 0-7.453 3.565-7.453 7.98 0 4.765 3.226 8 7.705 8v.013zm4.7-8.96h-9.93c.127-2.334 1.722-5.08 4.95-5.08 3.445 0 4.948 2.808 4.98 5.08zm17.916 8.581V41.323c0-3.691-2.661-5.143-5.857-5.143-2.475 0-4.416.82-6.044 2.524l1.096 1.64c1.346-1.45 2.82-2.113 4.636-2.113 2.192 0 3.822 1.166 3.822 3.217v2.744c-1.222-1.42-2.944-2.083-5.012-2.083-2.568 0-5.295 1.61-5.295 5.016 0 3.312 2.724 5.048 5.295 5.048 2.036 0 3.759-.725 5.012-2.113v1.733l2.347.003zm-6.513-1.325c-2.192 0-3.728-1.387-3.728-3.312 0-1.956 1.536-3.344 3.728-3.344 1.66 0 3.256.63 4.166 1.893v2.87c-.908 1.262-2.506 1.894-4.166 1.894v-.001zm17.871 1.704c2.756 0 4.385-1.136 5.544-2.65l-1.566-1.45c-1.002 1.356-2.286 1.986-3.839 1.986-3.226 0-5.229-2.524-5.229-5.898 0-3.375 2.004-5.867 5.229-5.867 1.566 0 2.85.6 3.839 1.987l1.566-1.451c-1.158-1.515-2.788-2.65-5.544-2.65-4.51 0-7.548 3.471-7.548 7.982 0 4.543 3.038 8 7.548 8v.01zm12.656 0c1.377 0 2.224-.411 2.82-.978l-.689-1.766c-.314.346-.927.63-1.598.63-1.032 0-1.535-.82-1.535-1.956v-9.464h3.071V36.56h-3.071v-4.164h-2.35v4.164h-2.506v2.083h2.506v9.969c0 2.272 1.128 3.565 3.352 3.565v-.002z" fill="#00D8FF"/>
</svg>