<svg width="362" height="245" fill="none" 
    xmlns="http://www.w3.org/2000/svg">
    <g clip-path="url(#clip0)">
        <path opacity=".4" d="M245.297 152.216c14.934 0 27.041-12.095 27.041-27.016 0-14.92-12.107-27.015-27.041-27.015-14.934 0-27.041 12.095-27.041 27.015 0 14.921 12.107 27.016 27.041 27.016z" fill="#129A74"/>
        <path d="M245.914 162.581H95.124v40.83h150.79v-40.83z" fill="#3F3D56"/>
        <path d="M236.256 61.423l-6.021 2.847 5.329-3.981a30.08 30.08 0 00-2.909-3.825l-26.113 6.484 23.587-8.989a30.045 30.045 0 00-3.425-2.608l-39.789 6.403a29.77 29.77 0 00-6.531 18.592h59.893a29.746 29.746 0 00-4.021-14.923zM241.025 17.668A174.867 174.867 0 00164.178 0C109.982 0 61.528 24.552 29.344 63.127c55.111-12.064 151.064-32.947 211.681-45.46z" fill="#F2F2F2"/>
        <path d="M359.359 244.241H0v.704h359.359v-.704z" fill="#2F2E41"/>
        <path d="M209.931 76.346l-20.387-30.254s30.874 10.769 27.37 30.254h-6.983z" fill="#3F3D56"/>
        <path d="M210.731 76.346l20.386-30.254s-30.873 10.769-27.369 30.254h6.983z" fill="#129A74"/>
        <path d="M246.091 244.945H94.948V19.677h151.143v225.268zm-150.438-.704h149.733V20.381H95.653v223.86z" fill="#2F2E41"/>
        <path d="M245.914 25.02H95.477v.704h150.437v-.704z" fill="#2F2E41"/>
        <path d="M99.352 23.9a1.408 1.408 0 10.002-2.815 1.408 1.408 0 00-.002 2.815zM103.228 23.9a1.409 1.409 0 100-2.817 1.409 1.409 0 000 2.817zM107.103 23.9a1.409 1.409 0 100-2.817 1.409 1.409 0 000 2.817zM107.103 29.884h-6.342v3.52h6.342v-3.52zM131.765 57.69h-31.004v3.52h31.004v-3.52z" fill="#129A74"/>
        <path d="M211.035 33.404h31.004v-3.52h-31.004v3.52zM152.904 63.674h-52.143v2.112h52.143v-2.112zM150.085 68.25h-49.324v2.112h49.324V68.25zM136.697 72.826h-35.936v2.112h35.936v-2.112zM133.174 135.479H112.74v2.111h20.434v-2.111zM132.07 140.054h-19.33v2.112h19.33v-2.112zM126.823 144.63H112.74v2.112h14.083v-2.112zM180.736 135.479h-20.434v2.111h20.434v-2.111zM179.632 140.054h-19.33v2.112h19.33v-2.112zM174.385 144.63h-14.083v2.112h14.083v-2.112zM230.06 135.479h-20.434v2.111h20.434v-2.111zM228.956 140.054h-19.33v2.112h19.33v-2.112zM223.709 144.63h-14.083v2.112h14.083v-2.112z" fill="#F2F2F2"/>
        <path d="M175.452 215.378h-31.004v3.52h31.004v-3.52z" fill="#129A74"/>
        <path d="M196.591 221.362h-52.143v2.112h52.143v-2.112zM193.772 225.938h-49.324v2.112h49.324v-2.112zM180.384 230.513h-35.936v2.112h35.936v-2.112z" fill="#F2F2F2"/>
        <path opacity=".3" d="M232.703 95.705H110.098v.704h122.605v-.704zM135.993 108.024h-26.071v23.231h26.071v-23.231z" fill="#129A74"/>
        <path d="M183.555 108.024h-26.071v23.231h26.071v-23.231zM232.879 108.024h-26.071v23.231h26.071v-23.231z" fill="#3F3D56"/>
        <path d="M167.123 131.157l-.344-.007c.007-.38.222-9.349 3.756-11.828l.198.281c-3.392 2.379-3.609 11.463-3.61 11.554zM172.354 119.209a1.719 1.719 0 100-3.437 1.719 1.719 0 000 3.437z" fill="#129A74"/>
        <path d="M172.006 123.557a5.364 5.364 0 01-2.763.12 4.885 4.885 0 015.017-1.72 5.345 5.345 0 01-2.254 1.6zM216.446 131.157l-.344-.007c.008-.38.223-9.349 3.757-11.828l.197.281c-3.391 2.379-3.608 11.463-3.61 11.554zM221.677 119.209a1.719 1.719 0 10.002-3.438 1.719 1.719 0 00-.002 3.438z" fill="#129A74"/>
        <path d="M221.33 123.557a5.364 5.364 0 01-2.763.12 4.882 4.882 0 015.017-1.72 5.351 5.351 0 01-2.254 1.6zM131.765 175.604h-31.004v3.52h31.004v-3.52z" fill="#129A74"/>
        <path d="M152.904 181.588h-52.143v2.112h52.143v-2.112zM150.085 186.164h-49.324v2.112h49.324v-2.112zM136.697 190.74h-35.936v2.112h35.936v-2.112z" fill="#F2F2F2"/>
        <path opacity=".4" d="M215.528 191.46c6.08 0 11.009-4.924 11.009-10.998 0-6.075-4.929-10.999-11.009-10.999s-11.009 4.924-11.009 10.999c0 6.074 4.929 10.998 11.009 10.998zM195.153 193.43c4.265 0 7.723-3.454 7.723-7.715 0-4.261-3.458-7.716-7.723-7.716s-7.723 3.455-7.723 7.716 3.458 7.715 7.723 7.715z" fill="#129A74"/>
        <path d="M59.012 232.802c15.372 0 27.833-12.45 27.833-27.807s-12.461-27.807-27.833-27.807c-15.371 0-27.832 12.45-27.832 27.807s12.46 27.807 27.832 27.807z" fill="#2F2E41"/>
        <path d="M54.785 226.818h-8.456v15.135h8.456v-15.135zM71.696 226.818H63.24v15.135h8.456v-15.135z" fill="#2F2E41"/>
        <path d="M53.375 244.769c3.892 0 7.047-1.182 7.047-2.64 0-1.458-3.155-2.64-7.047-2.64-3.891 0-7.046 1.182-7.046 2.64 0 1.458 3.155 2.64 7.046 2.64zM70.286 244.417c3.892 0 7.047-1.182 7.047-2.64 0-1.458-3.155-2.64-7.047-2.64-3.891 0-7.046 1.182-7.046 2.64 0 1.458 3.155 2.64 7.046 2.64z" fill="#2F2E41"/>
        <path d="M59.717 207.459c5.254 0 9.513-4.255 9.513-9.504 0-5.248-4.26-9.503-9.513-9.503s-9.512 4.255-9.512 9.503c0 5.249 4.259 9.504 9.512 9.504z" fill="#fff"/>
        <path d="M59.717 196.899a3.169 3.169 0 003.17-3.167 3.17 3.17 0 00-3.17-3.168 3.17 3.17 0 00-3.17 3.168 3.169 3.169 0 003.17 3.167z" fill="#3F3D56"/>
        <path d="M32.014 179.136c-2.248-10.056 4.936-20.216 16.045-22.694 11.11-2.479 21.937 3.664 24.185 13.719 2.247 10.055-5.115 13.764-16.225 16.242-11.109 2.478-21.758 2.788-24.005-7.267z" fill="#129A74"/>
        <path d="M84.034 176.065c3.24-6.963 4.09-13.432 1.903-14.447-2.188-1.016-6.588 3.805-9.826 10.769-3.24 6.963-4.091 13.432-1.903 14.448 2.188 1.015 6.588-3.806 9.826-10.77zM35.497 194.962c2.133-1.128.947-7.544-2.649-14.33-3.595-6.787-8.239-11.374-10.371-10.246-2.133 1.128-.947 7.543 2.649 14.33 3.595 6.786 8.239 11.374 10.371 10.246zM293.903 197.289c2.251-.867 1.835-7.378-.929-14.543-2.764-7.165-6.83-12.27-9.081-11.403-2.252.867-1.836 7.378.928 14.543 2.764 7.164 6.83 12.27 9.082 11.403z" fill="#2F2E41"/>
        <path d="M314.682 233.048c15.372 0 27.833-12.449 27.833-27.806 0-15.357-12.461-27.807-27.833-27.807-15.371 0-27.833 12.45-27.833 27.807s12.462 27.806 27.833 27.806z" fill="#2F2E41"/>
        <path d="M319.012 242.187l8.456-.024-.042-15.135-8.456.024.042 15.135zM302.103 242.235l8.455-.023-.042-15.136-8.456.024.043 15.135z" fill="#2F2E41"/>
        <path d="M320.431 245c3.891-.011 7.043-1.202 7.039-2.66-.005-1.458-3.163-2.631-7.054-2.62-3.892.011-7.043 1.202-7.039 2.66.004 1.458 3.162 2.631 7.054 2.62zM303.519 244.695c3.891-.011 7.043-1.201 7.039-2.659-.005-1.458-3.163-2.631-7.054-2.62-3.892.01-7.043 1.201-7.039 2.659.004 1.458 3.162 2.631 7.054 2.62z" fill="#2F2E41"/>
        <path d="M313.958 207.708c5.253 0 9.512-4.255 9.512-9.504 0-5.248-4.259-9.503-9.512-9.503-5.254 0-9.513 4.255-9.513 9.503 0 5.249 4.259 9.504 9.513 9.504z" fill="#fff"/>
        <path d="M313.958 201.372a3.17 3.17 0 003.171-3.168 3.17 3.17 0 00-3.171-3.167 3.17 3.17 0 00-3.171 3.167 3.17 3.17 0 003.171 3.168z" fill="#3F3D56"/>
        <path d="M341.608 179.307c2.219-10.061-4.993-20.202-16.109-22.649-11.116-2.447-21.926 3.726-24.146 13.787-2.219 10.062 5.154 13.75 16.27 16.197 11.116 2.447 21.766 2.727 23.985-7.335z" fill="#129A74"/>
        <path d="M347.878 196.19c6.935-3.31 11.714-7.756 10.674-9.931-1.04-2.175-7.505-1.255-14.44 2.055-6.935 3.309-11.714 7.756-10.674 9.931 1.04 2.175 7.505 1.255 14.44-2.055z" fill="#2F2E41"/>
        <path d="M328.382 215.235c.007 2.721-6.992 8.115-14.775 8.137-7.783.022-15.102-7.62-15.109-10.341-.008-2.722 7.299.507 15.082.485 7.783-.021 14.794-1.003 14.802 1.719z" fill="#fff"/>
        <path opacity=".4" d="M323.158 203.78c21.452 0 38.842-17.374 38.842-38.806 0-21.431-17.39-38.805-38.842-38.805-21.451 0-38.842 17.374-38.842 38.805 0 21.432 17.391 38.806 38.842 38.806z" fill="#129A74"/>
        <path d="M67.082 150.504c15.372 0 27.833-12.449 27.833-27.807 0-15.357-12.461-27.806-27.833-27.806-15.371 0-27.833 12.449-27.833 27.806 0 15.358 12.462 27.807 27.833 27.807z" fill="#2F2E41"/>
        <path d="M59.03 143.419l-8.32-1.505-2.698 14.893 8.32 1.505 2.699-14.893zM75.671 146.428l-8.32-1.504-2.698 14.893 8.32 1.505 2.698-14.894z" fill="#2F2E41"/>
        <path d="M75.64 166.991c.944-1.113-.699-4.052-3.669-6.564-2.97-2.513-6.141-3.648-7.084-2.535-.944 1.112.7 4.051 3.669 6.564 2.97 2.512 6.142 3.647 7.085 2.535zM59.347 164.044c.943-1.113-.7-4.051-3.67-6.564-2.97-2.513-6.141-3.648-7.084-2.535-.943 1.113.7 4.051 3.67 6.564 2.969 2.513 6.14 3.648 7.084 2.535z" fill="#2F2E41"/>
        <path d="M69.03 125.399c5.254 0 9.513-4.255 9.513-9.503 0-5.249-4.259-9.504-9.512-9.504-5.254 0-9.513 4.255-9.513 9.504 0 5.248 4.259 9.503 9.513 9.503z" fill="#fff"/>
        <path d="M72.94 115.657a3.17 3.17 0 100-6.336 3.17 3.17 0 100 6.336z" fill="#3F3D56"/>
        <path d="M45.126 92.447c-.419-10.295 8.462-19.014 19.835-19.475 11.374-.462 20.933 7.509 21.352 17.803.418 10.295-7.488 12.634-18.861 13.095-11.373.462-21.907-1.129-22.326-11.423z" fill="#129A74"/>
        <path d="M93.758 121.886c7.491-1.716 13.127-5.011 12.588-7.361-.539-2.349-7.049-2.863-14.54-1.148-7.492 1.716-13.128 5.011-12.589 7.361.54 2.349 7.05 2.863 14.54 1.148zM39.123 130.963c7.492-1.716 13.128-5.011 12.589-7.361-.54-2.349-7.05-2.863-14.54-1.148-7.492 1.716-13.128 5.011-12.59 7.361.54 2.349 7.05 2.863 14.541 1.148z" fill="#2F2E41"/>
        <path d="M59.438 133.656a6.332 6.332 0 005.11 7.363 6.338 6.338 0 007.37-5.106c.624-3.443-2.04-4.662-5.487-5.285-3.446-.623-6.37-.415-6.993 3.028z" fill="#fff"/>
        <path d="M132.617 100.11l-24.973-7.48-6.678 22.252 24.973 7.48 6.678-22.252z" fill="#3F3D56"/>
        <path d="M110.227 117.554l-.327-.105c.116-.363 2.9-8.892 6.998-10.252l.108.326c-3.932 1.305-6.751 9.944-6.779 10.031zM119.166 107.682a1.719 1.719 0 10-1.72-1.718c0 .949.77 1.718 1.72 1.718z" fill="#129A74"/>
        <path d="M117.089 111.676a5.356 5.356 0 01-2.68-.679 4.887 4.887 0 015.3-.207 5.374 5.374 0 01-2.62.886z" fill="#129A74"/>
    </g>
    <defs>
        <clipPath id="clip0">
            <path fill="#fff" d="M0 0h362v245H0z"/>
        </clipPath>
    </defs>
</svg>