<svg width="410" height="225" fill="none" 
    xmlns="http://www.w3.org/2000/svg">
    <path d="M408.271.183H84.262v207.205h324.009V.183z" fill="#E6E6E6"/>
    <path d="M229.885 28.008H112.913v120.018h116.972V28.008zM390.605 30.335H273.634v145.77h116.971V30.335z" fill="#fff"/>
    <path d="M389.046 222.453c11.573 0 20.954-1.338 20.954-2.989 0-1.65-9.381-2.989-20.954-2.989-11.572 0-20.953 1.339-20.953 2.989 0 1.651 9.381 2.989 20.953 2.989zM179.556 222.52c11.572 0 20.953-1.338 20.953-2.989 0-1.65-9.381-2.989-20.953-2.989-11.573 0-20.954 1.339-20.954 2.989 0 1.651 9.381 2.989 20.954 2.989zM48.09 218.842c26.559 0 48.09-1.03 48.09-2.3 0-1.269-21.531-2.299-48.09-2.299-26.56 0-48.09 1.03-48.09 2.299 0 1.27 21.53 2.3 48.09 2.3z" fill="#E6E6E6"/>
    <path d="M408.133 0H84.123v13.745h324.01V0z" fill="#129A74"/>
    <path d="M94.353 9.575a2.55 2.55 0 002.551-2.548 2.55 2.55 0 00-2.551-2.548 2.55 2.55 0 00-2.551 2.548 2.55 2.55 0 002.55 2.548zM104.037 9.575a2.55 2.55 0 002.551-2.548 2.55 2.55 0 00-2.551-2.548 2.55 2.55 0 00-2.551 2.548 2.55 2.55 0 002.551 2.548zM113.721 9.575a2.55 2.55 0 002.551-2.548 2.55 2.55 0 00-2.551-2.548 2.55 2.55 0 00-2.552 2.548 2.55 2.55 0 002.552 2.548z" fill="#E6E6E6"/>
    <path d="M364.816 69.435h-.708V50.053a11.215 11.215 0 00-6.935-10.364 11.255 11.255 0 00-4.3-.854h-41.125a11.25 11.25 0 00-7.944 3.285 11.21 11.21 0 00-3.29 7.933v106.334a11.197 11.197 0 003.29 7.932 11.234 11.234 0 007.944 3.286h41.125a11.25 11.25 0 007.944-3.286 11.204 11.204 0 003.291-7.932V83.232h.708V69.435z" fill="#3F3D56"/>
    <path d="M352.866 41.753h-5.368a3.97 3.97 0 01-.383 3.724 3.978 3.978 0 01-3.308 1.76h-23.56a3.994 3.994 0 01-3.308-1.76 3.982 3.982 0 01-.382-3.723h-5.014a8.402 8.402 0 00-5.933 2.453 8.367 8.367 0 00-2.457 5.924v106.178a8.372 8.372 0 005.179 7.74 8.402 8.402 0 003.211.638h41.323a8.402 8.402 0 005.933-2.454 8.372 8.372 0 002.457-5.924V50.131a8.373 8.373 0 00-2.457-5.924 8.398 8.398 0 00-5.933-2.454z" fill="#fff"/>
    <path d="M212.131 103.821h-81.302v3.703h81.302v-3.703z" fill="#E6E6E6"/>
    <path d="M212.131 115.777h-81.302v3.703h81.302v-3.703z" fill="#129A74"/>
    <path d="M212.131 127.732h-81.302v3.703h81.302v-3.703zM356.396 111.9h-47.462v3.703h47.462V111.9zM356.396 123.396h-47.462v3.703h47.462v-3.703zM356.396 134.892h-47.462v3.703h47.462v-3.703z" fill="#E6E6E6"/>
    <path d="M361.359 192.393v-7.899h-7.911v7.899h7.911z" fill="#3F3D56"/>
    <path d="M348.614 192.393v-7.899h-7.91v7.899h7.91z" fill="#129A74"/>
    <path d="M335.87 192.393v-7.899h-7.911v7.899h7.911zM323.125 192.393v-7.899h-7.911v7.899h7.911zM310.38 192.393v-7.899h-7.91v7.899h7.91z" fill="#3F3D56"/>
    <path d="M345.389 63.913H319.02v26.33h26.369v-26.33z" fill="#129A74"/>
    <path d="M161 126.729l-.342.681-1.024-5.112s-1.365-5.453 1.366-5.453c2.73 0 2.047 5.453 2.047 5.453v3.749l-2.047.682zM205.781 126.031l.341.682 1.024-5.112s1.365-5.453-1.365-5.453c-2.731 0-2.048 5.453-2.048 5.453v3.748l2.048.682z" fill="#A0616A"/>
    <path d="M176.017 165.055l-4.095 25.22 2.047 24.537 4.778-2.044-.682-18.404 4.778-14.655 1.024 17.381-2.048 18.063 6.144.682 4.437-37.148-.341-12.61-16.042-1.022z" fill="#2F2E41"/>
    <path d="M176.017 211.745l-2.389 3.749v8.377a1.013 1.013 0 00.855 1.002c1.171.192 3.21.329 3.923-.859 1.024-1.704.341-5.453.341-5.453s1.366-2.726.683-4.771-1.365-2.385-1.365-2.385l-2.048.34zM186.256 215.153l.683 1.023s1.024 1.022.341 1.704c-.501.53-.957 1.099-1.365 1.704 0 0-3.754 1.022-3.754-.341v-4.431l4.095.341z" fill="#2F2E41"/>
    <path d="M185.026 137.317a4.52 4.52 0 004.524-4.517 4.52 4.52 0 00-4.524-4.518 4.52 4.52 0 00-4.524 4.518 4.52 4.52 0 004.524 4.517z" fill="#A0616A"/>
    <path d="M181.99 134.212l-.341 6.476 6.143.341-.341-6.476-5.461-.341z" fill="#A0616A"/>
    <path d="M188.645 141.199l-.969-2.364s-4.492-1.726-5.857-.022l-.682 2.045-5.461-1.363-3.072 6.816 2.73 19.426s7.168 9.201 16.724.34l2.731-18.403-2.048-7.157-4.096.682z" fill="#575A89"/>
    <path d="M192.059 141.881l.682-1.364 6.826-4.09 4.166-12.313 3.224 1.38-3.636 14.682-9.897 9.202-1.365-7.497zM176.358 140.176l-.682-.681-7.168-4.431-5.119-10.224-4.096 1.363 4.437 12.61 10.922 8.861 1.706-7.498z" fill="#575A89"/>
    <path d="M188.384 125.882l.74-.37-1.11-.369v-.369s-5.548-2.216-6.288 1.477a7.42 7.42 0 000 8.863v1.108l5.918.739.74-2.216s3.699-6.648 0-8.863z" fill="#2F2E41"/>
    <path d="M53 165.455l-1.314.657s-5.26 2.407-3.726 3.72c1.534 1.313 5.698-1.313 5.698-1.313l.877-1.094-1.534-1.97z" fill="#FFB8B8"/>
    <path d="M91.474 165.128l-4.065 27.245-6.136 19.038-3.287-1.531 3.067-26.042-8.766-7.441.658-10.942 18.53-.327z" fill="#2F2E41"/>
    <path d="M77.547 210.536s3.726-1.969 3.945.875l-.438 2.845s1.315 5.034-3.069 3.939c-4.383-1.094-1.315-4.376-1.315-4.376l.877-3.283zM75.136 173.99l-2.849 2.407s0 14.881 1.973 17.07c1.972 2.188 14.464 13.349 14.903 13.787.438.437 2.41-4.377 2.41-4.377L79.74 189.09l.876-8.535-5.479-6.565z" fill="#2F2E41"/>
    <path d="M90.258 202.22s3.507-.656 3.507 1.751c.044 1.903.19 3.802.438 5.69 0 0 .877 7.659-1.972 6.565-2.85-1.094-3.945-8.754-3.945-8.754a3.265 3.265 0 011.315-1.532c.877-.437.657-3.72.657-3.72z" fill="#2F2E41"/>
    <path d="M79.3 132.629l.658 8.097-1.753 3.064-4.822-4.596-.438-6.127 6.355-.438z" fill="#FFB8B8"/>
    <path d="M75.355 135.255a5.256 5.256 0 005.26-5.252 5.256 5.256 0 00-5.26-5.252 5.256 5.256 0 00-5.26 5.252 5.256 5.256 0 005.26 5.252z" fill="#FFB8B8"/>
    <path d="M77.547 140.508l2.192-6.347 3.944 4.377 7.233 27.792-5.48 3.283-2.41-3.501-.438 4.595-10.74-2.188-.876-29.325 2.19-3.08 4.385 4.394z" fill="#D0CDE1"/>
    <path d="M74.479 171.583l-1.315-35.452-2.85 2.188-5.26 3.501 3.507 12.475 1.096 13.13 4.822 4.158z" fill="#2F2E41"/>
    <path d="M66.59 142.039l-1.535-.219-4.384 12.912-8.766 10.942 3.288 3.501 10.08-9.848L69 151.23l-2.41-9.191z" fill="#2F2E41"/>
    <path d="M90.523 165.656l-.299 1.437s-1.368 5.614.615 5.225c1.983-.388 2.5-5.279 2.5-5.279l-.317-1.365-2.499-.018z" fill="#FFB8B8"/>
    <path d="M79.396 133.806l10.862 4.294-1.314 13.131 2.63 14.443-2.63 2.845-9.725-32.853.177-1.86zM75.63 121.182l1.545-.771v.771l1.029-.514v1.285s3.86 2.826 3.088 6.166c-.772 3.341-.772 3.598-.772 3.598s-.976-6.353-4.836-5.325c-3.86 1.028-4.17 1.214-5.2 4.04l-.279 1.212s-4.352-9.948 5.426-10.462z" fill="#2F2E41"/>
    <path d="M88.724 138.1h1.754l2.849 15.319v13.349l-3.507-.656-2.849-20.134 1.753-7.878z" fill="#2F2E41"/>
    <path d="M66.248 170.496H1.628v44.839h64.62v-44.839z" fill="#129A74"/>
    <path d="M33.938 179.245c-2.708 0-5.355.802-7.606 2.304a13.674 13.674 0 00-5.043 6.135 13.654 13.654 0 002.968 14.898 13.7 13.7 0 0021.064-2.071 13.655 13.655 0 002.308-7.595 13.7 13.7 0 00-4.022-9.655 13.74 13.74 0 00-9.669-4.016zm0 4.101a4.108 4.108 0 013.795 2.532 4.097 4.097 0 01-.89 4.469 4.105 4.105 0 01-4.477.889 4.105 4.105 0 01-2.535-3.789 4.123 4.123 0 014.107-4.101zm0 19.744a9.99 9.99 0 01-8.214-4.377c.066-2.735 5.476-4.24 8.214-4.24 2.738 0 8.149 1.505 8.215 4.24a10 10 0 01-8.214 4.377z" fill="#fff"/>
    <path d="M211.924 41.803h-81.051v46.444h81.051V41.803z" fill="#E6E6E6"/>
    <path d="M372.192 133.921l.375-2.419s2.189-4.968.459-5.236c-1.73-.268-3.173 4.462-3.173 4.462l.633 5.052 1.706-1.859z" fill="#FFB8B8"/>
    <path d="M389.907 147.632l-15.465-3.101-1.797-11.248-4.552-.35.222 14.541 13.437 7.034 8.155-6.876z" fill="#575A89"/>
    <path opacity=".2" d="M389.907 147.632l-15.465-3.101-1.797-11.248-4.552-.35.222 14.541 13.437 7.034 8.155-6.876z" fill="#000"/>
    <path d="M347.835 130.946h47.463v-3.703h-47.463v3.703z" fill="#129A74"/>
    <path d="M369.17 133.092l.003-2.448s1.408-5.243-.343-5.245c-1.751-.002-2.458 4.892-2.458 4.892l1.395 4.897 1.403-2.096z" fill="#FFB8B8"/>
    <path d="M389.3 140.102l2.122-.516a5.465 5.465 0 005.308-4.14 5.424 5.424 0 00.053-2.395 7.1 7.1 0 00-.54-2.729 7.144 7.144 0 00-13.193-.017 7.139 7.139 0 00-.547 2.728 5.66 5.66 0 001.361 5.488 5.676 5.676 0 005.436 1.581zM376.821 175.41l1.727 18.884 3.128 18.536 5.253.006-.678-18.183-2.774-22.032-6.656 2.789z" fill="#2F2E41"/>
    <path d="M382.378 211.781l-3.505 2.094s-5.603.692-4.555 2.442c1.048 1.75 13.306.716 13.307.017.001-.7-.345-4.546-1.045-4.547l-4.202-.006zM392.326 173.778s-.099 2.7-2.555 6.893l.333 12.938 12.586 16.1-4.557 3.84-15.385-17.502-3.826-20.984 4.909-4.889 8.495 3.604z" fill="#2F2E41"/>
    <path d="M401.64 209.708s4.201.704 3.498 2.452c-.702 1.747-2.463 9.787-7.014 8.732 0 0-2.101-.002-1.399-1.4.422-.841.891-1.657 1.404-2.446l.006-4.546 3.505-2.792z" fill="#2F2E41"/>
    <path d="M387.026 140.457a5.249 5.249 0 005.253-5.245 5.249 5.249 0 00-5.253-5.245 5.248 5.248 0 00-5.252 5.245 5.248 5.248 0 005.252 5.245z" fill="#FFB8B8"/>
    <path d="M389.473 138.712l-.007 5.944-5.603-.007.708-5.943 4.902.006z" fill="#FFB8B8"/>
    <path d="M382.465 142.549l1.698-.416 5.305.425s2.798 2.801 2.447 3.5c-.351.699-2.123 17.83-2.123 17.83l3.136 12.241-11.207.686-5.601-.707 1.078-22.027s-2.444-5.947.71-7.691a13.794 13.794 0 004.557-3.841z" fill="#575A89"/>
    <path d="M388.766 143.956l-15.757-.719-3.488-10.844-4.552.344 2.433 14.339 14.351 4.913 7.013-8.033z" fill="#575A89"/>
    <path d="M397.166 131.348a3.387 3.387 0 003.389-3.384 3.387 3.387 0 00-3.389-3.384 3.386 3.386 0 00-3.389 3.384 3.386 3.386 0 003.389 3.384z" fill="#2F2E41"/>
    <path d="M394.039 126.145a3.371 3.371 0 011.242-2.615 3.396 3.396 0 012.814-.698 3.392 3.392 0 00-3.943.771 3.37 3.37 0 00-.874 2.637 3.386 3.386 0 002.704 2.966 3.376 3.376 0 01-1.943-3.061zM391.132 128.064l-4.569-.84-3.514 2.199a5.322 5.322 0 00-2.455 5.194l3.519-.891.788-1.973.939 1.536 3.807 6.647 3.854-2.093 2.456-3.843-4.825-5.936z" fill="#2F2E41"/>
    <path d="M131.102 41.404l-.458.798 81.051 46.444.459-.798-81.052-46.444z" fill="#fff"/>
    <path d="M211.697 41.407l-81.055 46.438.459.797 81.054-46.437-.458-.798zM319.551 63.55l-.651.65 26.249 26.211.651-.65-26.249-26.211z" fill="#fff"/>
    <path d="M345.149 63.55L318.9 89.761l.651.65 26.249-26.21-.651-.65z" fill="#fff"/>
</svg>