<svg width="30" height="30" fill="none" 
    xmlns="http://www.w3.org/2000/svg">
    <g clip-path="url(#clip0)">
        <path d="M28.734 17.457C30.43 7.751 21.964-.558 12.419 1.234 5.143-3.218-3.21 5.266 1.25 12.52c-1.734 9.684 6.73 18.1 16.354 16.262 7.29 4.42 15.616-4.075 11.13-11.325zM15.48 24.821c-3.976 0-7.972-1.81-7.952-4.926.006-.94.705-1.803 1.636-1.803 2.341 0 2.319 3.494 6.046 3.494 2.616 0 3.509-1.432 3.509-2.43 0-3.607-11.304-1.396-11.304-8.179 0-3.672 3.003-6.202 7.724-5.926 4.502.266 7.141 2.254 7.396 4.111.126 1.214-.677 2.16-2.074 2.16-2.035 0-2.243-2.727-5.75-2.727-1.582 0-2.917.66-2.917 2.092 0 2.994 11.237 1.257 11.237 7.845 0 3.8-3.028 6.29-7.55 6.29z" fill="#0CA4F3"/>
    </g>
    <defs>
        <clipPath id="clip0">
            <path fill="#fff" d="M0 0h30v30H0z"/>
        </clipPath>
    </defs>
</svg>