<svg width="128" height="64" fill="none" 
    xmlns="http://www.w3.org/2000/svg">
    <path d="M19.949 20.744h-6.016v18.63h-2.454v-18.63H5.49v-2.212h14.46v2.212zm9.491 3.749l-6.846 17.262c-1.22 3.08-2.933 4.622-5.146 4.622-.62 0-1.138-.062-1.555-.19v-2.138c.512.174.984.26 1.408.26 1.204 0 2.105-.714 2.703-2.149l1.19-2.82-5.813-14.847h2.646l4.026 11.45c.05.146.15.525.306 1.133h.086l.288-1.104 4.228-11.48h2.479zm3.898 12.732h-.058v8.995h-2.385V24.492h2.385v2.616h.058c1.173-1.975 2.885-2.965 5.146-2.965 1.918 0 3.414.666 4.49 1.997 1.078 1.331 1.612 3.117 1.612 5.357 0 2.488-.604 4.485-1.814 5.981-1.21 1.497-2.87 2.245-4.968 2.245-1.92-.005-3.419-.835-4.464-2.502l-.002.004zm-.058-6.004v2.08c0 1.232.401 2.272 1.199 3.134.798.862 1.813 1.286 3.046 1.286 1.443 0 2.575-.555 3.395-1.658.819-1.103 1.226-2.641 1.226-4.605 0-1.657-.384-2.954-1.149-3.893-.764-.939-1.813-1.408-3.108-1.408-1.385 0-2.501.483-3.344 1.446s-1.265 2.164-1.265 3.618zm25.765 1.307H48.54c.037 1.658.483 2.933 1.335 3.836.852.902 2.027 1.351 3.518 1.351 1.675 0 3.216-.554 4.622-1.657v2.236c-1.307.95-3.038 1.427-5.188 1.427-2.105 0-3.755-.675-4.957-2.027-1.202-1.353-1.813-3.253-1.813-5.705 0-2.314.657-4.202 1.968-5.658 1.31-1.456 2.944-2.187 4.89-2.187 1.947 0 3.452.63 4.518 1.888 1.067 1.259 1.6 3.008 1.6 5.246v1.248l.013.002zm-2.453-2.021c-.008-1.387-.343-2.447-.996-3.211-.653-.764-1.563-1.149-2.724-1.149-1.125 0-2.08.401-2.866 1.208-.785.806-1.28 1.856-1.455 3.154l8.041-.002zm4.527 8.023v-2.877c.302.288.661.555 1.083.785.42.23.853.43 1.33.587.479.157.935.285 1.402.373.468.089.907.133 1.302.133 1.373 0 2.402-.278 3.08-.835.677-.558 1.016-1.36 1.016-2.406 0-.562-.112-1.05-.34-1.468a4.044 4.044 0 00-.938-1.14 9.278 9.278 0 00-1.419-.989l-1.76-.996-1.86-1.12a8.053 8.053 0 01-1.5-1.248 5.216 5.216 0 01-1.006-1.547c-.244-.576-.362-1.252-.362-2.026 0-.95.19-1.774.57-2.475.381-.7.88-1.28 1.504-1.736a6.543 6.543 0 012.12-1.017 8.927 8.927 0 012.428-.335c1.88 0 3.249.249 4.108.74v2.745c-1.124-.851-2.56-1.277-4.336-1.277-.487 0-.976.058-1.463.165a3.817 3.817 0 00-1.302.547c-.38.252-.69.576-.93.976-.24.4-.36.88-.36 1.455 0 .533.092.991.274 1.38.182.388.45.74.806 1.062.357.322.785.63 1.299.93l1.76.988 1.94 1.163a8.81 8.81 0 011.61 1.351c.46.496.826 1.042 1.095 1.643.269.6.405 1.29.405 2.063 0 1.024-.185 1.898-.55 2.608-.349.69-.86 1.285-1.487 1.736-.624.448-1.344.768-2.162.968-.818.2-1.675.298-2.58.298-.301 0-.674-.024-1.115-.078l-1.355-.232a10.74 10.74 0 01-1.31-.377c-.416-.16-.744-.32-.996-.511l-.001-.006zm24.245.16c-1.144.686-2.501 1.035-4.067 1.035-2.12 0-3.836-.69-5.138-2.072-1.303-1.381-1.955-3.17-1.955-5.37 0-2.45.704-4.418 2.108-5.906 1.403-1.488 3.277-2.233 5.625-2.233 1.307 0 2.46.245 3.46.728v2.453c-1.104-.779-2.285-1.163-3.546-1.163-1.521 0-2.77.546-3.741 1.637-.972 1.092-1.46 2.522-1.46 4.295 0 1.744.46 3.121 1.373 4.126.915 1.005 2.144 1.512 3.684 1.512 1.298 0 2.517-.43 3.663-1.294V38.7l-.006-.01zm9.223-11.789c-.416-.317-1.017-.48-1.814-.48-1.016 0-1.868.48-2.549 1.44-.68.96-1.024 2.266-1.024 3.924v7.584h-2.385v-14.88H89.2v3.067h.058c.339-1.045.855-1.864 1.554-2.447.698-.582 1.475-.88 2.339-.88.619 0 1.095.067 1.426.214l.01 2.458zm2.736-6.186a1.52 1.52 0 01-1.091-.434c-.302-.29-.45-.657-.45-1.104 0-.447.149-.814.45-1.112.3-.298.665-.443 1.09-.443.435 0 .807.15 1.112.443a1.482 1.482 0 01.459 1.112c0 .426-.153.789-.459 1.09a1.558 1.558 0 01-1.111.449v-.001zm1.162 18.659H96.1v-14.88h2.385v14.88zm3.845-2.15h-.058v8.996h-2.385V24.492h2.385v2.616h.058c1.173-1.975 2.885-2.965 5.146-2.965 1.918 0 3.414.666 4.491 1.997 1.077 1.331 1.611 3.117 1.611 5.357 0 2.488-.604 4.485-1.814 5.981-1.209 1.497-2.88 2.245-4.968 2.245-1.92-.005-3.419-.835-4.464-2.502l-.002.004zm-.058-6.002v2.08c0 1.232.401 2.272 1.199 3.134.798.862 1.813 1.286 3.046 1.286 1.442 0 2.575-.555 3.394-1.658.82-1.103 1.227-2.641 1.227-4.605 0-1.657-.384-2.954-1.149-3.893-.764-.939-1.813-1.408-3.108-1.408-1.384 0-2.501.483-3.344 1.446s-1.265 2.166-1.265 3.622v-.004zm20.23 8.008c-.562.31-1.301.463-2.224.463-2.602 0-3.91-1.455-3.91-4.36v-8.805h-2.56v-2.034h2.56V20.86l2.385-.768v4.402h3.749v2.034h-3.749v8.384c0 .996.171 1.711.509 2.138.338.426.901.64 1.685.64.6 0 1.12-.166 1.554-.496l.001 2.035z" fill="#007ACC"/>
</svg>